<svg xmlns="http://www.w3.org/2000/svg" width="439.292" height="354.724" viewBox="0 0 439.292 354.724">
  <g id="Typing-bro" transform="translate(-27.111 -60.743)">
    <g id="freepik--background-simple--inject-1--inject-1" transform="translate(45.587 60.743)">
      <path id="Path_1" data-name="Path 1" d="M416.495,178.126c2.234-23.091,7.579-44.953-1.87-67.158-17.343-40.75-69.658-62.384-110.309-43.082-20.788,9.843-38.564,24.243-61.459,29.529-61.794,14.262-157.171-61.725-190.8,26.743-11.546,30.355-6.89,70.357,13.987,95.732,6.7,8.14,14.892,15.227,19.853,24.538,13.573,25.483-5.64,53.486-14.3,77.257-20.572,56.173,56.99,87.257,99.088,92.986,69.589,9.528,126.993-70.2,196.2-37.718,48.23,22.639,90.555-32.482,81.7-87.6-5.8-36.084-35.149-70.623-32.4-107.4C416.268,180.686,416.377,179.416,416.495,178.126Z" transform="translate(-45.881 -60.743)" fill="#ffc100"/>
      <path id="Path_2" data-name="Path 2" d="M416.495,178.126c2.234-23.091,7.579-44.953-1.87-67.158-17.343-40.75-69.658-62.384-110.309-43.082-20.788,9.843-38.564,24.243-61.459,29.529-61.794,14.262-157.171-61.725-190.8,26.743-11.546,30.355-6.89,70.357,13.987,95.732,6.7,8.14,14.892,15.227,19.853,24.538,13.573,25.483-5.64,53.486-14.3,77.257-20.572,56.173,56.99,87.257,99.088,92.986,69.589,9.528,126.993-70.2,196.2-37.718,48.23,22.639,90.555-32.482,81.7-87.6-5.8-36.084-35.149-70.623-32.4-107.4C416.268,180.686,416.377,179.416,416.495,178.126Z" transform="translate(-45.881 -60.743)" fill="#fff" opacity="0.7"/>
    </g>
    <g id="freepik--Plant--inject-1--inject-1" transform="translate(27.111 93.96)">
      <circle id="Ellipse_1" data-name="Ellipse 1" cx="33.988" cy="33.988" r="33.988" transform="translate(23.75 31.212)" fill="#fff" stroke="#2e353a" stroke-linecap="round" stroke-linejoin="round" stroke-width="1"/>
      <circle id="Ellipse_2" data-name="Ellipse 2" cx="33.988" cy="33.988" r="33.988" transform="translate(21.221 27.836)" fill="#fff" stroke="#2e353a" stroke-linecap="round" stroke-linejoin="round" stroke-width="1"/>
      <circle id="Ellipse_3" data-name="Ellipse 3" cx="30.611" cy="30.611" r="30.611" transform="translate(24.597 31.212)" fill="#2e353a" stroke="#2e353a" stroke-linecap="round" stroke-linejoin="round" stroke-width="1"/>
      <path id="Path_3" data-name="Path 3" d="M78.726,133.5s-3.376-8.445-9.282-14.351-29.981-9.715-29.981-9.715a88.272,88.272,0,0,1,10.561,12.245c5.482,7.6,23.623,24.912,23.623,24.912s-8.859-7.6-16.89-8.445-28.288,3.376-29.529,3.376,7.6,3.376,13.938,6.329,30.818,5.492,30.818,5.492-10.552,2.953-17.717,5.492-13.957,21.1-13.957,21.1,9.292-8.445,17.314-10.552,19.42-5.906,19.42-5.906-7.175,8.022-8.859,13.514-.423,18.15-.423,18.15,3.8-11.811,8.445-16.467,9.7-12.619,9.7-12.619a116.145,116.145,0,0,1,6.339,11.811c3.376,7.175,5.482,17.717,5.482,17.717s5.492-11.811,5.069-17.717S96.04,161.4,96.04,161.4s4.223-2.953,10.552-.423,17.314,13.091,17.314,13.091-2.539-13.938-6.762-19.42-22.373-7.185-22.373-7.185,10.138-5.906,16.467-7.175S126,141.98,126,141.98s-9.705-13.514-17.3-14.361-19,10.945-19,10.945l3.386-16.89c.837-4.223-.846-14.764-.846-14.764s-4.646,2.53-10.138,10.552A21.024,21.024,0,0,0,78.726,133.5Z" transform="translate(-27.111 -94.685)" fill="#ffc100"/>
      <path id="Path_4" data-name="Path 4" d="M78.726,133.5s-3.376-8.445-9.282-14.351-29.981-9.715-29.981-9.715a88.272,88.272,0,0,1,10.561,12.245c5.482,7.6,23.623,24.912,23.623,24.912s-8.859-7.6-16.89-8.445-28.288,3.376-29.529,3.376,7.6,3.376,13.938,6.329,30.818,5.492,30.818,5.492-10.552,2.953-17.717,5.492-13.957,21.1-13.957,21.1,9.292-8.445,17.314-10.552,19.42-5.906,19.42-5.906-7.175,8.022-8.859,13.514-.423,18.15-.423,18.15,3.8-11.811,8.445-16.467,9.7-12.619,9.7-12.619a116.145,116.145,0,0,1,6.339,11.811c3.376,7.175,5.482,17.717,5.482,17.717s5.492-11.811,5.069-17.717S96.04,161.4,96.04,161.4s4.223-2.953,10.552-.423,17.314,13.091,17.314,13.091-2.539-13.938-6.762-19.42-22.373-7.185-22.373-7.185,10.138-5.906,16.467-7.175S126,141.98,126,141.98s-9.705-13.514-17.3-14.361-19,10.945-19,10.945l3.386-16.89c.837-4.223-.846-14.764-.846-14.764s-4.646,2.53-10.138,10.552A21.024,21.024,0,0,0,78.726,133.5Z" transform="translate(-27.111 -94.685)" opacity="0.5"/>
      <path id="Path_5" data-name="Path 5" d="M88,120.8c.3-1.211.62-2.421.984-3.612" transform="translate(-28.067 -94.847)" fill="none" stroke="#2e353a" stroke-linecap="round" stroke-linejoin="round" stroke-width="0.5"/>
      <path id="Path_6" data-name="Path 6" d="M59.35,120.86c3.937,2.884,8.859,6.89,11.437,10.325,4.646,6.329,13.938,19.843,13.938,19.843a125.546,125.546,0,0,1,2.146-27.078" transform="translate(-27.617 -94.904)" fill="none" stroke="#2e353a" stroke-linecap="round" stroke-linejoin="round" stroke-width="0.5"/>
      <path id="Path_7" data-name="Path 7" d="M53.39,116.76s1.23.787,3.071,2.057" transform="translate(-27.523 -94.84)" fill="none" stroke="#2e353a" stroke-linecap="round" stroke-linejoin="round" stroke-width="0.5"/>
      <path id="Path_8" data-name="Path 8" d="M85.13,151.23s16.044-16.044,22.8-17.314,12.668,3.8,12.668,3.8" transform="translate(-28.022 -95.106)" fill="none" stroke="#2e353a" stroke-linecap="round" stroke-linejoin="round" stroke-width="0.5"/>
      <path id="Path_9" data-name="Path 9" d="M55.932,165.14c-3.937,2.48-4.262,3.937-4.262,3.937" transform="translate(-27.496 -95.6)" fill="none" stroke="#2e353a" stroke-linecap="round" stroke-linejoin="round" stroke-width="0.5"/>
      <path id="Path_10" data-name="Path 10" d="M119.758,166.318s-2.53-6.339-11.4-9.292-22.786-3.376-22.786-3.376-19.538,6.4-26.684,9.735" transform="translate(-27.61 -95.419)" fill="none" stroke="#2e353a" stroke-linecap="round" stroke-linejoin="round" stroke-width="0.5"/>
      <path id="Path_11" data-name="Path 11" d="M77.32,151.2c4.725,1.378,8.534,2.412,8.534,2.412" transform="translate(-27.899 -95.381)" fill="none" stroke="#2e353a" stroke-linecap="round" stroke-linejoin="round" stroke-width="0.5"/>
      <path id="Path_12" data-name="Path 12" d="M47.11,143.58c4.587.276,10.493.906,13.78,2.313,2.677,1.152,7.953,2.815,12.934,4.3" transform="translate(-27.425 -95.261)" fill="none" stroke="#2e353a" stroke-linecap="round" stroke-linejoin="round" stroke-width="0.5"/>
      <path id="Path_13" data-name="Path 13" d="M40.52,143.36s1.545,0,3.819.089" transform="translate(-27.321 -95.258)" fill="none" stroke="#2e353a" stroke-linecap="round" stroke-linejoin="round" stroke-width="0.5"/>
      <path id="Path_14" data-name="Path 14" d="M84.914,156.22S73.1,173.937,72.246,178.18a43,43,0,0,0-.846,7.6" transform="translate(-27.806 -95.46)" fill="none" stroke="#2e353a" stroke-linecap="round" stroke-linejoin="round" stroke-width="0.5"/>
      <path id="Path_15" data-name="Path 15" d="M90.47,161.89c2.274,2.953,5,6.89,6.142,10.04a69.274,69.274,0,0,1,2.953,11.811" transform="translate(-28.106 -95.549)" fill="none" stroke="#2e353a" stroke-linecap="round" stroke-linejoin="round" stroke-width="0.5"/>
      <path id="Path_16" data-name="Path 16" d="M86.84,157.51s.984,1.043,2.254,2.648" transform="translate(-28.049 -95.48)" fill="none" stroke="#2e353a" stroke-linecap="round" stroke-linejoin="round" stroke-width="0.5"/>
      <path id="Path_17" data-name="Path 17" d="M73.565,136.942s-2.175-8.859-.827-17.077S91.44,94.49,91.44,94.49a88.78,88.78,0,0,0-1.427,16.1c0,9.37-4.675,34.017-4.675,34.017s2.766-11.339,8.79-16.733,24.952-13.78,25.975-14.5-4.2,7.175-7.618,13.278-21.851,22.471-21.851,22.471,10.3-3.76,17.6-5.906,23.623,9.016,23.623,9.016-12.471-1.437-20.217,1.526-19.223,6.526-19.223,6.526,10.512,2.333,15.079,5.807,10.945,14.528,10.945,14.528-9.981-7.392-16.467-8.455S86.7,167.554,86.7,167.554a118.748,118.748,0,0,0,1.752,13.288c1.447,7.805,5.906,17.609,5.906,17.609S83,192.053,79.894,187,75.78,169.69,75.78,169.69s-5.158.059-8.859,5.807-6.427,20.729-6.427,20.729-6.063-12.8-5.837-19.686,13.987-18.879,13.987-18.879-11.674,1.112-17.56,3.77-11.024,9.991-11.024,9.991,0-16.635,5.689-21.753S67.591,147.5,67.591,147.5l-12.6-11.743c-3.15-2.953-7.933-12.5-7.933-12.5s5.256-.65,14.39,2.667A20.975,20.975,0,0,1,73.565,136.942Z" transform="translate(-27.314 -94.49)" fill="#ffc100"/>
      <path id="Path_18" data-name="Path 18" d="M59.574,131.9c-.984-.817-1.91-1.6-2.894-2.372" transform="translate(-27.575 -95.04)" fill="none" stroke="#2e353a" stroke-linecap="round" stroke-linejoin="round" stroke-width="0.5"/>
      <path id="Path_19" data-name="Path 19" d="M82.562,115.23c-1.526,4.646-3.228,10.758-3.268,15.05-.079,7.874.256,24.243.256,24.243A125.122,125.122,0,0,0,62,133.794" transform="translate(-27.659 -94.816)" fill="none" stroke="#2e353a" stroke-linecap="round" stroke-linejoin="round" stroke-width="0.5"/>
      <path id="Path_20" data-name="Path 20" d="M85.329,108.42s-.551,1.358-1.3,3.455" transform="translate(-28.005 -94.709)" fill="none" stroke="#2e353a" stroke-linecap="round" stroke-linejoin="round" stroke-width="0.5"/>
      <path id="Path_21" data-name="Path 21" d="M79.244,155.12s-22.393-3.671-28.613-.758-8.071,10.453-8.071,10.453" transform="translate(-27.353 -95.413)" fill="none" stroke="#2e353a" stroke-linecap="round" stroke-linejoin="round" stroke-width="0.5"/>
      <path id="Path_22" data-name="Path 22" d="M111.45,149.229c4.616-.256,5.719.679,5.719.679" transform="translate(-28.436 -95.349)" fill="none" stroke="#2e353a" stroke-linecap="round" stroke-linejoin="round" stroke-width="0.5"/>
      <path id="Path_23" data-name="Path 23" d="M59.666,187.505s-1.634-6.624,3.839-14.193,16.556-16.034,16.556-16.034,19.6-6.211,27.344-7.658" transform="translate(-27.618 -95.356)" fill="none" stroke="#2e353a" stroke-linecap="round" stroke-linejoin="round" stroke-width="0.5"/>
      <path id="Path_24" data-name="Path 24" d="M85.912,150.35c-3.032,3.868-5.512,6.939-5.512,6.939" transform="translate(-27.948 -95.368)" fill="none" stroke="#2e353a" stroke-linecap="round" stroke-linejoin="round" stroke-width="0.5"/>
      <path id="Path_25" data-name="Path 25" d="M105.805,126.54c-3.563,2.953-7.992,6.89-9.843,9.912-1.506,2.5-4.823,6.89-8,11.034" transform="translate(-28.067 -94.994)" fill="none" stroke="#2e353a" stroke-linecap="round" stroke-linejoin="round" stroke-width="0.5"/>
      <path id="Path_26" data-name="Path 26" d="M111.261,122.51s-1.25.906-3.051,2.3" transform="translate(-28.385 -94.93)" fill="none" stroke="#2e353a" stroke-linecap="round" stroke-linejoin="round" stroke-width="0.5"/>
      <path id="Path_27" data-name="Path 27" d="M82.58,159s19.952,7.5,23.091,10.443a42.739,42.739,0,0,1,5.118,5.679" transform="translate(-27.982 -95.504)" fill="none" stroke="#2e353a" stroke-linecap="round" stroke-linejoin="round" stroke-width="0.5"/>
      <path id="Path_28" data-name="Path 28" d="M81.549,166.7c-.138,3.721-.069,8.494.866,11.743a68.623,68.623,0,0,0,4.5,11.329" transform="translate(-27.965 -95.624)" fill="none" stroke="#2e353a" stroke-linecap="round" stroke-linejoin="round" stroke-width="0.5"/>
      <path id="Path_29" data-name="Path 29" d="M81.936,161s-.158,1.4-.276,3.465" transform="translate(-27.968 -95.535)" fill="none" stroke="#2e353a" stroke-linecap="round" stroke-linejoin="round" stroke-width="0.5"/>
    </g>
    <g id="freepik--Device--inject-1--inject-1" transform="translate(102.151 93.96)">
      <path id="Path_30" data-name="Path 30" d="M140.662,183.43H363.771a10.5,10.5,0,0,1,10.5,10.5V338.623a11.487,11.487,0,0,1-11.487,11.487H141.647a11.487,11.487,0,0,1-11.487-11.487V193.932a10.5,10.5,0,0,1,10.5-10.5Z" transform="translate(-106.18 -92.875)" fill="#fff" stroke="#2e353a" stroke-linecap="round" stroke-linejoin="round" stroke-width="1"/>
      <rect id="Rectangle_1" data-name="Rectangle 1" width="13.741" height="9.026" transform="translate(102.399 106.963)" fill="#2e353a"/>
      <rect id="Rectangle_2" data-name="Rectangle 2" width="12.756" height="12.658" transform="translate(58.864 162.644)" fill="#2e353a"/>
      <rect id="Rectangle_3" data-name="Rectangle 3" width="12.855" height="12.658" transform="translate(115.126 118.154)" fill="#2e353a"/>
      <rect id="Rectangle_4" data-name="Rectangle 4" width="13.741" height="9.026" transform="translate(86.483 106.963)" fill="#2e353a"/>
      <rect id="Rectangle_5" data-name="Rectangle 5" width="12.855" height="12.658" transform="translate(130.146 118.154)" fill="#2e353a"/>
      <rect id="Rectangle_6" data-name="Rectangle 6" width="13.741" height="9.026" transform="translate(118.305 106.963)" fill="#2e353a"/>
      <rect id="Rectangle_7" data-name="Rectangle 7" width="24.174" height="12.658" transform="translate(39.739 147.811)" fill="#2e353a"/>
      <rect id="Rectangle_8" data-name="Rectangle 8" width="12.855" height="12.658" transform="translate(85.075 118.154)" fill="#2e353a"/>
      <rect id="Rectangle_9" data-name="Rectangle 9" width="16.959" height="12.658" transform="translate(39.739 162.644)" fill="#2e353a"/>
      <rect id="Rectangle_10" data-name="Rectangle 10" width="13.741" height="9.026" transform="translate(134.221 106.963)" fill="#2e353a"/>
      <rect id="Rectangle_11" data-name="Rectangle 11" width="12.855" height="12.658" transform="translate(55.025 118.154)" fill="#2e353a"/>
      <rect id="Rectangle_12" data-name="Rectangle 12" width="13.741" height="9.026" transform="translate(54.661 106.963)" fill="#2e353a"/>
      <rect id="Rectangle_13" data-name="Rectangle 13" width="13.741" height="9.026" transform="translate(70.577 106.963)" fill="#2e353a"/>
      <rect id="Rectangle_14" data-name="Rectangle 14" width="12.855" height="12.658" transform="translate(70.045 118.154)" fill="#2e353a"/>
      <rect id="Rectangle_15" data-name="Rectangle 15" width="12.855" height="12.658" transform="translate(100.095 118.154)" fill="#2e353a"/>
      <rect id="Rectangle_16" data-name="Rectangle 16" width="13.741" height="9.026" transform="translate(197.875 106.963)" fill="#2e353a"/>
      <rect id="Rectangle_17" data-name="Rectangle 17" width="13.741" height="9.026" transform="translate(213.781 106.963)" fill="#2e353a"/>
      <rect id="Rectangle_18" data-name="Rectangle 18" width="12.855" height="12.658" transform="translate(205.277 118.154)" fill="#2e353a"/>
      <rect id="Rectangle_19" data-name="Rectangle 19" width="12.855" height="12.658" transform="translate(220.307 118.154)" fill="#2e353a"/>
      <rect id="Rectangle_20" data-name="Rectangle 20" width="18.928" height="12.658" transform="translate(238.004 162.644)" fill="#2e353a"/>
      <rect id="Rectangle_21" data-name="Rectangle 21" width="13.741" height="9.026" transform="translate(229.697 106.963)" fill="#2e353a"/>
      <rect id="Rectangle_22" data-name="Rectangle 22" width="13.121" height="12.658" transform="translate(39.739 118.154)" fill="#2e353a"/>
      <rect id="Rectangle_23" data-name="Rectangle 23" width="13.741" height="9.026" transform="translate(150.137 106.963)" fill="#2e353a"/>
      <rect id="Rectangle_24" data-name="Rectangle 24" width="13.741" height="9.026" transform="translate(166.043 106.963)" fill="#2e353a"/>
      <rect id="Rectangle_25" data-name="Rectangle 25" width="12.855" height="12.658" transform="translate(160.206 118.154)" fill="#2e353a"/>
      <rect id="Rectangle_26" data-name="Rectangle 26" width="12.855" height="12.658" transform="translate(190.256 118.154)" fill="#2e353a"/>
      <rect id="Rectangle_27" data-name="Rectangle 27" width="12.855" height="12.658" transform="translate(145.176 118.154)" fill="#2e353a"/>
      <rect id="Rectangle_28" data-name="Rectangle 28" width="12.855" height="12.658" transform="translate(175.226 118.154)" fill="#2e353a"/>
      <rect id="Rectangle_29" data-name="Rectangle 29" width="13.741" height="9.026" transform="translate(181.959 106.963)" fill="#2e353a"/>
      <rect id="Rectangle_30" data-name="Rectangle 30" width="12.756" height="12.658" transform="translate(163.366 162.644)" fill="#2e353a"/>
      <rect id="Rectangle_31" data-name="Rectangle 31" width="12.756" height="12.658" transform="translate(230.297 147.811)" fill="#2e353a"/>
      <rect id="Rectangle_32" data-name="Rectangle 32" width="12.756" height="12.658" transform="translate(215.366 147.811)" fill="#2e353a"/>
      <rect id="Rectangle_33" data-name="Rectangle 33" width="12.756" height="12.658" transform="translate(223.073 162.644)" fill="#2e353a"/>
      <rect id="Rectangle_34" data-name="Rectangle 34" width="12.756" height="12.658" transform="translate(208.151 162.644)" fill="#2e353a"/>
      <rect id="Rectangle_35" data-name="Rectangle 35" width="12.756" height="12.658" transform="translate(178.287 162.644)" fill="#2e353a"/>
      <rect id="Rectangle_36" data-name="Rectangle 36" width="12.756" height="12.658" transform="translate(193.219 162.644)" fill="#2e353a"/>
      <rect id="Rectangle_37" data-name="Rectangle 37" width="12.756" height="12.658" transform="translate(200.434 147.811)" fill="#2e353a"/>
      <rect id="Rectangle_38" data-name="Rectangle 38" width="12.756" height="12.658" transform="translate(185.512 147.811)" fill="#2e353a"/>
      <rect id="Rectangle_39" data-name="Rectangle 39" width="11.329" height="9.026" transform="translate(245.613 106.963)" fill="#2e353a"/>
      <rect id="Rectangle_40" data-name="Rectangle 40" width="12.756" height="9.026" transform="translate(39.739 106.963)" fill="#2e353a"/>
      <rect id="Rectangle_41" data-name="Rectangle 41" width="217.203" height="13.16" transform="translate(39.739 177.467)" fill="#2e353a"/>
      <rect id="Rectangle_42" data-name="Rectangle 42" width="21.605" height="12.658" transform="translate(235.327 118.154)" fill="#2e353a"/>
      <rect id="Rectangle_43" data-name="Rectangle 43" width="11.713" height="12.658" transform="translate(245.219 147.811)" fill="#2e353a"/>
      <path id="Path_31" data-name="Path 31" d="M348.048,239.1h-2.175V226.54H333.116V239.1h-2.165V226.54H318.194V239.1h-2.175V226.54H303.263V239.1h-2.175V226.54H288.331V239.1h-2.165V226.54H273.409V239.1h-2.175V226.54H258.477V239.1H256.3V226.54H243.546V239.1H241.38V226.54H228.624V239.1h-2.175V226.54H213.692V239.1h-2.175V226.54H198.761V239.1H196.6V226.54H183.839V239.1h-2.175V226.54H168.907V239.1h-2.175V226.54H146.17V239.2H363.363V226.54H348.048Z" transform="translate(-106.431 -93.553)" fill="#2e353a"/>
      <rect id="Rectangle_44" data-name="Rectangle 44" width="12.756" height="12.658" transform="translate(125.795 147.811)" fill="#2e353a"/>
      <rect id="Rectangle_45" data-name="Rectangle 45" width="12.756" height="12.658" transform="translate(170.58 147.811)" fill="#2e353a"/>
      <rect id="Rectangle_46" data-name="Rectangle 46" width="12.756" height="12.658" transform="translate(95.942 147.811)" fill="#2e353a"/>
      <rect id="Rectangle_47" data-name="Rectangle 47" width="12.756" height="12.658" transform="translate(103.649 162.644)" fill="#2e353a"/>
      <rect id="Rectangle_48" data-name="Rectangle 48" width="12.756" height="12.658" transform="translate(110.864 147.811)" fill="#2e353a"/>
      <rect id="Rectangle_49" data-name="Rectangle 49" width="12.756" height="12.658" transform="translate(81.01 147.811)" fill="#2e353a"/>
      <rect id="Rectangle_50" data-name="Rectangle 50" width="12.756" height="12.658" transform="translate(73.795 162.644)" fill="#2e353a"/>
      <rect id="Rectangle_51" data-name="Rectangle 51" width="12.756" height="12.658" transform="translate(88.717 162.644)" fill="#2e353a"/>
      <rect id="Rectangle_52" data-name="Rectangle 52" width="12.756" height="12.658" transform="translate(140.727 147.811)" fill="#2e353a"/>
      <rect id="Rectangle_53" data-name="Rectangle 53" width="12.756" height="12.658" transform="translate(148.434 162.644)" fill="#2e353a"/>
      <rect id="Rectangle_54" data-name="Rectangle 54" width="12.756" height="12.658" transform="translate(155.649 147.811)" fill="#2e353a"/>
      <rect id="Rectangle_55" data-name="Rectangle 55" width="12.756" height="12.658" transform="translate(118.58 162.644)" fill="#2e353a"/>
      <rect id="Rectangle_56" data-name="Rectangle 56" width="12.756" height="12.658" transform="translate(133.502 162.644)" fill="#2e353a"/>
      <rect id="Rectangle_57" data-name="Rectangle 57" width="12.756" height="12.658" transform="translate(66.078 147.811)" fill="#2e353a"/>
      <path id="Path_32" data-name="Path 32" d="M387.828,91.43h-273.3a8.741,8.741,0,0,0-8.435,11l19.981,74.393a8.74,8.74,0,0,0,8.435,6.477h27.895v5.148H341.242v-5.118h26.576a8.74,8.74,0,0,0,8.435-6.477l19.981-74.393a8.74,8.74,0,0,0-8.406-11.034Z" transform="translate(-105.797 -91.43)" fill="#2e353a" stroke="#2e353a" stroke-linecap="round" stroke-linejoin="round" stroke-width="1"/>
      <path id="Path_33" data-name="Path 33" d="M357.217,176.885H145.732L124.58,100.77H378.359Z" transform="translate(-106.092 -91.577)" fill="#ffc100" stroke="#2e353a" stroke-linecap="round" stroke-linejoin="round" stroke-width="1"/>
      <path id="Path_34" data-name="Path 34" d="M160.27,144.16v.984h-3.73v-.984Z" transform="translate(-106.594 -92.258)" fill="#2e353a"/>
      <path id="Path_35" data-name="Path 35" d="M164.99,144.16v.984h-3.74v-.984Z" transform="translate(-106.668 -92.258)" fill="#2e353a"/>
      <path id="Path_36" data-name="Path 36" d="M169.711,144.16v.984H166v-.984Z" transform="translate(-106.743 -92.258)" fill="#2e353a"/>
      <path id="Path_37" data-name="Path 37" d="M174.42,144.16v.984h-3.73v-.984Z" transform="translate(-106.816 -92.258)" fill="#2e353a"/>
      <path id="Path_38" data-name="Path 38" d="M179.14,144.16v.984H175.4v-.984Z" transform="translate(-106.89 -92.258)" fill="#2e353a"/>
      <path id="Path_39" data-name="Path 39" d="M183.86,144.16v.984h-3.74v-.984Z" transform="translate(-106.965 -92.258)" fill="#2e353a"/>
      <path id="Path_40" data-name="Path 40" d="M188.57,144.16v.984h-3.73v-.984Z" transform="translate(-107.039 -92.258)" fill="#2e353a"/>
      <path id="Path_41" data-name="Path 41" d="M193.234,149.255,189.12,138.29h.984l4.114,10.965Z" transform="translate(-107.106 -92.166)" fill="#2e353a"/>
      <path id="Path_42" data-name="Path 42" d="M156.45,127.94v.984h-3.73v-.984Z" transform="translate(-106.534 -92.004)" fill="#2e353a"/>
      <path id="Path_43" data-name="Path 43" d="M161.17,127.94v.984h-3.73v-.984Z" transform="translate(-106.608 -92.004)" fill="#2e353a"/>
      <path id="Path_44" data-name="Path 44" d="M165.94,127.94v.984H162.2v-.984Z" transform="translate(-106.683 -92.004)" fill="#2e353a"/>
      <path id="Path_45" data-name="Path 45" d="M170.61,127.94v.984h-3.74v-.984Z" transform="translate(-106.756 -92.004)" fill="#2e353a"/>
      <path id="Path_46" data-name="Path 46" d="M175.32,127.94v.984h-3.73v-.984Z" transform="translate(-106.831 -92.004)" fill="#2e353a"/>
      <path id="Path_47" data-name="Path 47" d="M183.3,127.94v.984h-3.74v-.984Z" transform="translate(-106.956 -92.004)" fill="#2e353a"/>
      <path id="Path_48" data-name="Path 48" d="M188.01,127.94v.984h-3.73v-.984Z" transform="translate(-107.03 -92.004)" fill="#2e353a"/>
      <path id="Path_49" data-name="Path 49" d="M192.73,127.94v.984H189v-.984Z" transform="translate(-107.104 -92.004)" fill="#2e353a"/>
      <path id="Path_50" data-name="Path 50" d="M197.45,127.94v.984h-3.74v-.984Z" transform="translate(-107.178 -92.004)" fill="#2e353a"/>
      <path id="Path_51" data-name="Path 51" d="M202.16,127.94v.984h-3.73v-.984Z" transform="translate(-107.252 -92.004)" fill="#2e353a"/>
      <path id="Path_52" data-name="Path 52" d="M206.88,127.94v.984h-3.73v-.984Z" transform="translate(-107.326 -92.004)" fill="#2e353a"/>
      <path id="Path_53" data-name="Path 53" d="M211.6,127.94v.984h-3.74v-.984Z" transform="translate(-107.4 -92.004)" fill="#2e353a"/>
      <path id="Path_54" data-name="Path 54" d="M219.57,127.94v.984h-3.73v-.984Z" transform="translate(-107.526 -92.004)" fill="#2e353a"/>
      <path id="Path_55" data-name="Path 55" d="M224.29,127.94v.984h-3.74v-.984Z" transform="translate(-107.6 -92.004)" fill="#2e353a"/>
      <path id="Path_56" data-name="Path 56" d="M229.01,127.94v.984h-3.74v-.984Z" transform="translate(-107.674 -92.004)" fill="#2e353a"/>
      <path id="Path_57" data-name="Path 57" d="M236.94,127.94v.984h-3.73v-.984Z" transform="translate(-107.799 -92.004)" fill="#2e353a"/>
      <path id="Path_58" data-name="Path 58" d="M241.7,127.94v.984H238v-.984Z" transform="translate(-107.874 -92.004)" fill="#2e353a"/>
      <path id="Path_59" data-name="Path 59" d="M246.42,127.94v.984h-3.74v-.984Z" transform="translate(-107.947 -92.004)" fill="#2e353a"/>
      <path id="Path_60" data-name="Path 60" d="M264.16,127.94v.984h-3.73v-.984Z" transform="translate(-108.226 -92.004)" fill="#2e353a"/>
      <path id="Path_61" data-name="Path 61" d="M268.88,127.94v.984h-3.74v-.984Z" transform="translate(-108.3 -92.004)" fill="#2e353a"/>
      <path id="Path_62" data-name="Path 62" d="M273.6,127.94v.984h-3.74v-.984Z" transform="translate(-108.374 -92.004)" fill="#2e353a"/>
      <path id="Path_63" data-name="Path 63" d="M278.311,127.94v.984H274.58v-.984Z" transform="translate(-108.449 -92.004)" fill="#2e353a"/>
      <path id="Path_64" data-name="Path 64" d="M283.03,127.94v.984h-3.74v-.984Z" transform="translate(-108.523 -92.004)" fill="#2e353a"/>
      <path id="Path_65" data-name="Path 65" d="M291,127.94v.984h-3.73v-.984Z" transform="translate(-108.648 -92.004)" fill="#2e353a"/>
      <path id="Path_66" data-name="Path 66" d="M295.721,127.94v.984H292v-.984Z" transform="translate(-108.722 -92.004)" fill="#2e353a"/>
      <path id="Path_67" data-name="Path 67" d="M300.44,127.94v.984H296.7v-.984Z" transform="translate(-108.796 -92.004)" fill="#2e353a"/>
      <path id="Path_68" data-name="Path 68" d="M308.41,127.94v.984H304.68v-.984Z" transform="translate(-108.921 -92.004)" fill="#2e353a"/>
      <path id="Path_69" data-name="Path 69" d="M316.39,127.94v.984h-3.74v-.984Z" transform="translate(-109.047 -92.004)" fill="#2e353a"/>
    </g>
    <g id="freepik--Notebook--inject-1--inject-1" transform="translate(363.619 234.389)">
      <path id="Path_70" data-name="Path 70" d="M379.522,292.29,368.99,332.922l9.961,2.923Z" transform="translate(-368.99 -238.026)" fill="#fff" stroke="#2e353a" stroke-linecap="round" stroke-linejoin="round" stroke-width="1"/>
      <path id="Path_71" data-name="Path 71" d="M384.468,248.479a8.415,8.415,0,0,1-1.211-6.181c.541-4.006,5.374-4.921,5.374-4.921s1.053-.8,4.921.669,33.781,5.522,52.9,8.111,25.306.915,25.04,7.481-17.038,65.485-17.294,67.335S384.468,248.479,384.468,248.479Z" transform="translate(-369.212 -237.16)" fill="#fff" stroke="#2e353a" stroke-miterlimit="10" stroke-width="1"/>
      <rect id="Rectangle_58" data-name="Rectangle 58" width="81.145" height="96.726" transform="matrix(0.991, 0.134, -0.134, 0.991, 15.25, 11.321)" fill="#fff" stroke="#2e353a" stroke-linecap="round" stroke-linejoin="round" stroke-width="1"/>
      <line id="Line_1" data-name="Line 1" x2="4.675" y2="0.64" transform="translate(80.712 41.34)" fill="none" stroke="#2e353a" stroke-linecap="round" stroke-linejoin="round" stroke-width="0.5"/>
      <line id="Line_2" data-name="Line 2" x2="25.582" y2="3.475" transform="translate(51.429 37.373)" fill="none" stroke="#2e353a" stroke-linecap="round" stroke-linejoin="round" stroke-width="0.5"/>
      <line id="Line_3" data-name="Line 3" x2="27.304" y2="3.701" transform="translate(20.424 33.17)" fill="none" stroke="#2e353a" stroke-linecap="round" stroke-linejoin="round" stroke-width="0.5"/>
      <line id="Line_4" data-name="Line 4" x2="10.847" y2="1.476" transform="translate(73.389 49.027)" fill="none" stroke="#2e353a" stroke-linecap="round" stroke-linejoin="round" stroke-width="0.5"/>
      <line id="Line_5" data-name="Line 5" x2="43.023" y2="5.827" transform="translate(19.272 41.694)" fill="none" stroke="#2e353a" stroke-linecap="round" stroke-linejoin="round" stroke-width="0.5"/>
      <line id="Line_6" data-name="Line 6" x2="41.98" y2="5.689" transform="translate(41.104 53.329)" fill="none" stroke="#2e353a" stroke-linecap="round" stroke-linejoin="round" stroke-width="0.5"/>
      <line id="Line_7" data-name="Line 7" x2="18.672" y2="2.539" transform="translate(18.111 50.208)" fill="none" stroke="#2e353a" stroke-linecap="round" stroke-linejoin="round" stroke-width="0.5"/>
      <line id="Line_8" data-name="Line 8" x2="26.871" y2="3.642" transform="translate(55.051 63.9)" fill="none" stroke="#2e353a" stroke-linecap="round" stroke-linejoin="round" stroke-width="0.5"/>
      <line id="Line_9" data-name="Line 9" x2="19.725" y2="2.677" transform="translate(32.245 60.799)" fill="none" stroke="#2e353a" stroke-linecap="round" stroke-linejoin="round" stroke-width="0.5"/>
      <line id="Line_10" data-name="Line 10" x2="11.89" y2="1.614" transform="translate(16.959 58.732)" fill="none" stroke="#2e353a" stroke-linecap="round" stroke-linejoin="round" stroke-width="0.5"/>
      <line id="Line_11" data-name="Line 11" x2="9.617" y2="1.299" transform="translate(71.154 74.757)" fill="none" stroke="#2e353a" stroke-linecap="round" stroke-linejoin="round" stroke-width="0.5"/>
      <line id="Line_12" data-name="Line 12" x2="48.88" y2="6.624" transform="translate(15.808 67.256)" fill="none" stroke="#2e353a" stroke-linecap="round" stroke-linejoin="round" stroke-width="0.5"/>
      <line id="Line_13" data-name="Line 13" x2="27.186" y2="3.691" transform="translate(52.433 80.889)" fill="none" stroke="#2e353a" stroke-linecap="round" stroke-linejoin="round" stroke-width="0.5"/>
      <line id="Line_14" data-name="Line 14" x2="33.161" y2="4.498" transform="translate(14.646 75.77)" fill="none" stroke="#2e353a" stroke-linecap="round" stroke-linejoin="round" stroke-width="0.5"/>
      <line id="Line_15" data-name="Line 15" x2="17.629" y2="2.382" transform="translate(60.829 90.712)" fill="none" stroke="#2e353a" stroke-linecap="round" stroke-linejoin="round" stroke-width="0.5"/>
      <line id="Line_16" data-name="Line 16" x2="31.438" y2="4.262" transform="translate(25.08 85.859)" fill="none" stroke="#2e353a" stroke-linecap="round" stroke-linejoin="round" stroke-width="0.5"/>
      <line id="Line_17" data-name="Line 17" x2="7.884" y2="1.063" transform="translate(13.495 84.294)" fill="none" stroke="#2e353a" stroke-linecap="round" stroke-linejoin="round" stroke-width="0.5"/>
      <path id="Path_72" data-name="Path 72" d="M466.18,259.592s1.378-13.367,6.3-7.992" transform="translate(-370.517 -237.367)" fill="none" stroke="#2e353a" stroke-linecap="round" stroke-linejoin="round" stroke-width="1"/>
      <path id="Path_73" data-name="Path 73" d="M438.082,363.283l-.089,8.494-4.951-6.988L413.17,297.946l5.039-1.506Z" transform="translate(-369.684 -238.092)" fill="#fff" stroke="#2e353a" stroke-linecap="round" stroke-linejoin="round" stroke-width="1"/>
      <rect id="Rectangle_59" data-name="Rectangle 59" width="2.864" height="69.737" transform="translate(43.803 62.007) rotate(-16.26)" fill="#ffc100" stroke="#2e353a" stroke-linecap="round" stroke-linejoin="round" stroke-width="0.5"/>
      <path id="Path_74" data-name="Path 74" d="M438.4,364.37l-5.03,1.5,4.941,6.979Z" transform="translate(-370.002 -239.159)" fill="none" stroke="#2e353a" stroke-linecap="round" stroke-linejoin="round" stroke-width="1"/>
      <path id="Path_75" data-name="Path 75" d="M435.88,369.418l2.47,3.494.049-4.242Z" transform="translate(-370.041 -239.226)" fill="#2e353a" stroke="#2e353a" stroke-linecap="round" stroke-linejoin="round" stroke-width="1"/>
      <path id="Path_76" data-name="Path 76" d="M413.44,289.6h0a2.638,2.638,0,0,0-1.772,3.268l1.476,4.971,5.04-1.5-1.477-4.971A2.638,2.638,0,0,0,413.44,289.6Z" transform="translate(-369.659 -237.982)" fill="#fff" stroke="#2e353a" stroke-linecap="round" stroke-linejoin="round" stroke-width="1"/>
      <path id="Path_77" data-name="Path 77" d="M413.44,289.6h0a2.638,2.638,0,0,0-1.772,3.268l.709,2.372,5.03-1.5-.7-2.372A2.638,2.638,0,0,0,413.44,289.6Z" transform="translate(-369.659 -237.982)" fill="#2e353a" stroke="#2e353a" stroke-linecap="round" stroke-linejoin="round" stroke-width="1"/>
    </g>
  </g>
</svg>
